<?xml version="1.0" encoding="UTF-8"?>
<svg width="202px" height="161px" viewBox="0 0 202 161" version="1.1" xmlns="http://www.w3.org/2000/svg" xmlns:xlink="http://www.w3.org/1999/xlink">
    <!-- Generator: Sketch 51.2 (57519) - http://www.bohemiancoding.com/sketch -->
    <title>Artboard</title>
    <desc>Created with Sketch.</desc>
    <defs></defs>
    <g id="Artboard" stroke="none" stroke-width="1" fill="none" fill-rule="evenodd">
        <g id="Group-5" fill="#1D1D1B">
            <polygon id="Fill-1" points="149 0 149 11.2630865 190.782986 11.261658 190.782986 149.736914 149 149.736914 149 161 202 161 202 0"></polygon>
            <polygon id="Fill-2" points="0 0.00142841933 0 161 53 161 53 149.736914 11.2155972 149.736914 11.2155972 11.2659433 53 11.2630865 53 0"></polygon>
            <polygon id="Fill-3" points="126.835748 40 115.815072 99.5735889 107.29453 40 92.6460445 40 84.152385 99.3940473 73.1642525 40 60 40 74.5551016 120 91.6541978 120 99.7955466 62.9328679 100.204453 62.9328679 108.347217 120 125.446313 120 140 40"></polygon>
            <polygon id="Fill-4" points="149 121 161 121 161 109 149 109"></polygon>
        </g>
    </g>
</svg>